<svg width="19" height="19" viewBox="0 0 19 19" fill="none" xmlns="http://www.w3.org/2000/svg">
<path d="M12.4371 10.0621C13.2132 9.45144 13.7797 8.61406 14.0578 7.66645C14.3359 6.71884 14.3117 5.70812 13.9886 4.77491C13.6655 3.84169 13.0595 3.03239 12.2551 2.45959C11.4506 1.88679 10.4876 1.57898 9.5 1.57898C8.51243 1.57898 7.54942 1.88679 6.74494 2.45959C5.94046 3.03239 5.33452 3.84169 5.01142 4.77491C4.68831 5.70812 4.66411 6.71884 4.94218 7.66645C5.22026 8.61406 5.78677 9.45144 6.56291 10.0621C5.23298 10.5949 4.07256 11.4786 3.20537 12.6191C2.33818 13.7595 1.79673 15.1139 1.63875 16.5379C1.62731 16.6419 1.63646 16.7471 1.66568 16.8475C1.6949 16.9479 1.74362 17.0416 1.80904 17.1232C1.94118 17.288 2.13337 17.3936 2.34333 17.4167C2.55329 17.4398 2.76383 17.3785 2.92863 17.2464C3.09343 17.1142 3.19898 16.922 3.22208 16.7121C3.39592 15.1645 4.13383 13.7353 5.29484 12.6974C6.45584 11.6595 7.95854 11.0857 9.51583 11.0857C11.0731 11.0857 12.5758 11.6595 13.7368 12.6974C14.8978 13.7353 15.6357 15.1645 15.8096 16.7121C15.8311 16.9066 15.9239 17.0863 16.0701 17.2164C16.2163 17.3465 16.4055 17.4179 16.6012 17.4167H16.6883C16.8959 17.3928 17.0855 17.2879 17.216 17.1247C17.3465 16.9616 17.4073 16.7535 17.385 16.5458C17.2263 15.1178 16.6819 13.7599 15.8103 12.6177C14.9386 11.4755 13.7726 10.5921 12.4371 10.0621ZM9.5 9.5C8.87369 9.5 8.26145 9.31428 7.74069 8.96632C7.21994 8.61836 6.81406 8.12379 6.57438 7.54516C6.3347 6.96653 6.27199 6.32982 6.39418 5.71554C6.51636 5.10127 6.81796 4.53702 7.26083 4.09416C7.70369 3.65129 8.26794 3.3497 8.88221 3.22751C9.49649 3.10532 10.1332 3.16803 10.7118 3.40771C11.2905 3.64739 11.785 4.05327 12.133 4.57402C12.4809 5.09478 12.6667 5.70702 12.6667 6.33333C12.6667 7.17318 12.333 7.97864 11.7392 8.5725C11.1453 9.16637 10.3399 9.5 9.5 9.5Z" fill="white"/>
</svg>
